<svg width="99" height="80" viewBox="0 0 99 80" fill="none" xmlns="http://www.w3.org/2000/svg">
<path opacity="0.5" d="M84 80H4C1.792 80 0 78.208 0 76V24C0 21.792 1.792 20 4 20H84C86.208 20 88 21.792 88 24V76C88 78.208 86.208 80 84 80Z" fill="#4A45B1"/>
<path d="M80 45.116H12V8C12 3.58 15.58 0 20 0H72C76.42 0 80 3.58 80 8V45.116Z" fill="#DAD9F0"/>
<path d="M84.8759 80H5.12395C2.51995 80 0.611948 77.556 1.24395 75.028L11.2439 35.028C11.6879 33.248 13.2879 32 15.1239 32H94.8759C97.4799 32 99.388 34.444 98.756 36.972L88.756 76.972C88.312 78.752 86.7119 80 84.8759 80Z" fill="#4A45B1"/>
</svg>
