<svg width="214" height="50" viewBox="0 0 214 50" fill="none" xmlns="http://www.w3.org/2000/svg">
<g clip-path="url(#clip0_0_583)">
<path opacity="0.5" d="M87.9062 19.25H91.4062L97.9844 36.7969L104.547 19.25H108.047L99.3594 42H96.5781L87.9062 19.25ZM86.3125 19.25H89.6406L90.2188 34.4375V42H86.3125V19.25ZM106.312 19.25H109.656V42H105.734V34.4375L106.312 19.25ZM124.109 38.0156V25.0938H127.891V42H124.328L124.109 38.0156ZM124.641 34.5L125.906 34.4688C125.906 35.6042 125.781 36.651 125.531 37.6094C125.281 38.5573 124.896 39.3854 124.375 40.0938C123.854 40.7917 123.188 41.3385 122.375 41.7344C121.562 42.1198 120.589 42.3125 119.453 42.3125C118.63 42.3125 117.875 42.1927 117.188 41.9531C116.5 41.7135 115.906 41.3438 115.406 40.8438C114.917 40.3438 114.536 39.6927 114.266 38.8906C113.995 38.0885 113.859 37.1302 113.859 36.0156V25.0938H117.625V36.0469C117.625 36.6615 117.698 37.1771 117.844 37.5938C117.99 38 118.188 38.3281 118.438 38.5781C118.688 38.8281 118.979 39.0052 119.312 39.1094C119.646 39.2135 120 39.2656 120.375 39.2656C121.448 39.2656 122.292 39.0573 122.906 38.6406C123.531 38.2135 123.974 37.6406 124.234 36.9219C124.505 36.2031 124.641 35.3958 124.641 34.5ZM141.234 37.4219C141.234 37.0469 141.141 36.7083 140.953 36.4062C140.766 36.0938 140.406 35.8125 139.875 35.5625C139.354 35.3125 138.583 35.0833 137.562 34.875C136.667 34.6771 135.844 34.4427 135.094 34.1719C134.354 33.8906 133.719 33.5521 133.188 33.1562C132.656 32.7604 132.245 32.2917 131.953 31.75C131.661 31.2083 131.516 30.5833 131.516 29.875C131.516 29.1875 131.667 28.5365 131.969 27.9219C132.271 27.3073 132.703 26.7656 133.266 26.2969C133.828 25.8281 134.51 25.4583 135.312 25.1875C136.125 24.9167 137.031 24.7812 138.031 24.7812C139.448 24.7812 140.661 25.0208 141.672 25.5C142.693 25.9688 143.474 26.6094 144.016 27.4219C144.557 28.224 144.828 29.1302 144.828 30.1406H141.062C141.062 29.6927 140.948 29.276 140.719 28.8906C140.5 28.4948 140.167 28.1771 139.719 27.9375C139.271 27.6875 138.708 27.5625 138.031 27.5625C137.385 27.5625 136.849 27.6667 136.422 27.875C136.005 28.0729 135.693 28.3333 135.484 28.6562C135.286 28.9792 135.188 29.3333 135.188 29.7188C135.188 30 135.24 30.2552 135.344 30.4844C135.458 30.7031 135.646 30.9062 135.906 31.0938C136.167 31.2708 136.521 31.4375 136.969 31.5938C137.427 31.75 138 31.901 138.688 32.0469C139.979 32.3177 141.089 32.6667 142.016 33.0938C142.953 33.5104 143.672 34.0521 144.172 34.7188C144.672 35.375 144.922 36.2083 144.922 37.2188C144.922 37.9688 144.76 38.6562 144.438 39.2812C144.125 39.8958 143.667 40.4323 143.062 40.8906C142.458 41.3385 141.734 41.6875 140.891 41.9375C140.057 42.1875 139.12 42.3125 138.078 42.3125C136.547 42.3125 135.25 42.0417 134.188 41.5C133.125 40.9479 132.318 40.2448 131.766 39.3906C131.224 38.526 130.953 37.6302 130.953 36.7031H134.594C134.635 37.401 134.828 37.9583 135.172 38.375C135.526 38.7812 135.964 39.0781 136.484 39.2656C137.016 39.4427 137.562 39.5312 138.125 39.5312C138.802 39.5312 139.37 39.4427 139.828 39.2656C140.286 39.0781 140.635 38.8281 140.875 38.5156C141.115 38.1927 141.234 37.8281 141.234 37.4219ZM152.25 25.0938V42H148.469V25.0938H152.25ZM148.219 20.6562C148.219 20.0833 148.406 19.6094 148.781 19.2344C149.167 18.849 149.698 18.6562 150.375 18.6562C151.042 18.6562 151.568 18.849 151.953 19.2344C152.339 19.6094 152.531 20.0833 152.531 20.6562C152.531 21.2188 152.339 21.6875 151.953 22.0625C151.568 22.4375 151.042 22.625 150.375 22.625C149.698 22.625 149.167 22.4375 148.781 22.0625C148.406 21.6875 148.219 21.2188 148.219 20.6562ZM163.281 39.3125C163.896 39.3125 164.448 39.1927 164.938 38.9531C165.438 38.7031 165.839 38.3594 166.141 37.9219C166.453 37.4844 166.625 36.9792 166.656 36.4062H170.203C170.182 37.5 169.859 38.4948 169.234 39.3906C168.609 40.2865 167.781 41 166.75 41.5312C165.719 42.0521 164.578 42.3125 163.328 42.3125C162.036 42.3125 160.911 42.0938 159.953 41.6562C158.995 41.2083 158.198 40.5938 157.562 39.8125C156.927 39.0312 156.448 38.1302 156.125 37.1094C155.812 36.0885 155.656 34.9948 155.656 33.8281V33.2812C155.656 32.1146 155.812 31.0208 156.125 30C156.448 28.9688 156.927 28.0625 157.562 27.2812C158.198 26.5 158.995 25.8906 159.953 25.4531C160.911 25.0052 162.031 24.7812 163.312 24.7812C164.667 24.7812 165.854 25.0521 166.875 25.5938C167.896 26.125 168.698 26.8698 169.281 27.8281C169.875 28.776 170.182 29.8802 170.203 31.1406H166.656C166.625 30.5156 166.469 29.9531 166.188 29.4531C165.917 28.9427 165.531 28.5365 165.031 28.2344C164.542 27.9323 163.953 27.7812 163.266 27.7812C162.505 27.7812 161.875 27.9375 161.375 28.25C160.875 28.5521 160.484 28.9688 160.203 29.5C159.922 30.0208 159.719 30.6094 159.594 31.2656C159.479 31.9115 159.422 32.5833 159.422 33.2812V33.8281C159.422 34.526 159.479 35.2031 159.594 35.8594C159.708 36.5156 159.906 37.1042 160.188 37.625C160.479 38.1354 160.875 38.5469 161.375 38.8594C161.875 39.1615 162.51 39.3125 163.281 39.3125ZM182.625 38.6094V30.5469C182.625 29.9427 182.516 29.4219 182.297 28.9844C182.078 28.5469 181.745 28.2083 181.297 27.9688C180.859 27.7292 180.307 27.6094 179.641 27.6094C179.026 27.6094 178.495 27.7135 178.047 27.9219C177.599 28.1302 177.25 28.4115 177 28.7656C176.75 29.1198 176.625 29.5208 176.625 29.9688H172.875C172.875 29.3021 173.036 28.6562 173.359 28.0312C173.682 27.4062 174.151 26.849 174.766 26.3594C175.38 25.8698 176.115 25.4844 176.969 25.2031C177.823 24.9219 178.781 24.7812 179.844 24.7812C181.115 24.7812 182.24 24.9948 183.219 25.4219C184.208 25.849 184.984 26.4948 185.547 27.3594C186.12 28.2135 186.406 29.2865 186.406 30.5781V38.0938C186.406 38.8646 186.458 39.5573 186.562 40.1719C186.677 40.776 186.839 41.3021 187.047 41.75V42H183.188C183.01 41.5938 182.87 41.0781 182.766 40.4531C182.672 39.8177 182.625 39.2031 182.625 38.6094ZM183.172 31.7188L183.203 34.0469H180.5C179.802 34.0469 179.188 34.1146 178.656 34.25C178.125 34.375 177.682 34.5625 177.328 34.8125C176.974 35.0625 176.708 35.3646 176.531 35.7188C176.354 36.0729 176.266 36.474 176.266 36.9219C176.266 37.3698 176.37 37.7812 176.578 38.1562C176.786 38.5208 177.089 38.8073 177.484 39.0156C177.891 39.224 178.38 39.3281 178.953 39.3281C179.724 39.3281 180.396 39.1719 180.969 38.8594C181.552 38.5365 182.01 38.1458 182.344 37.6875C182.677 37.2188 182.854 36.776 182.875 36.3594L184.094 38.0312C183.969 38.4583 183.755 38.9167 183.453 39.4062C183.151 39.8958 182.755 40.3646 182.266 40.8125C181.786 41.25 181.208 41.6094 180.531 41.8906C179.865 42.1719 179.094 42.3125 178.219 42.3125C177.115 42.3125 176.13 42.0938 175.266 41.6562C174.401 41.2083 173.724 40.6094 173.234 39.8594C172.745 39.099 172.5 38.2396 172.5 37.2812C172.5 36.3854 172.667 35.5938 173 34.9062C173.344 34.2083 173.844 33.625 174.5 33.1562C175.167 32.6875 175.979 32.3333 176.938 32.0938C177.896 31.8438 178.99 31.7188 180.219 31.7188H183.172ZM194.375 18V42H190.594V18H194.375ZM205.953 42.3125C204.703 42.3125 203.573 42.1094 202.562 41.7031C201.562 41.2865 200.708 40.7083 200 39.9688C199.302 39.2292 198.766 38.3594 198.391 37.3594C198.016 36.3594 197.828 35.2812 197.828 34.125V33.5C197.828 32.1771 198.021 30.9792 198.406 29.9062C198.792 28.8333 199.328 27.9167 200.016 27.1562C200.703 26.3854 201.516 25.7969 202.453 25.3906C203.391 24.9844 204.406 24.7812 205.5 24.7812C206.708 24.7812 207.766 24.9844 208.672 25.3906C209.578 25.7969 210.328 26.3698 210.922 27.1094C211.526 27.8385 211.974 28.7083 212.266 29.7188C212.568 30.7292 212.719 31.8438 212.719 33.0625V34.6719H199.656V31.9688H209V31.6719C208.979 30.9948 208.844 30.3594 208.594 29.7656C208.354 29.1719 207.984 28.6927 207.484 28.3281C206.984 27.9635 206.318 27.7812 205.484 27.7812C204.859 27.7812 204.302 27.9167 203.812 28.1875C203.333 28.4479 202.932 28.8281 202.609 29.3281C202.286 29.8281 202.036 30.4323 201.859 31.1406C201.693 31.8385 201.609 32.625 201.609 33.5V34.125C201.609 34.8646 201.708 35.5521 201.906 36.1875C202.115 36.8125 202.417 37.3594 202.812 37.8281C203.208 38.2969 203.688 38.6667 204.25 38.9375C204.812 39.1979 205.453 39.3281 206.172 39.3281C207.078 39.3281 207.885 39.1458 208.594 38.7812C209.302 38.4167 209.917 37.901 210.438 37.2344L212.422 39.1562C212.057 39.6875 211.583 40.1979 211 40.6875C210.417 41.1667 209.703 41.5573 208.859 41.8594C208.026 42.1615 207.057 42.3125 205.953 42.3125Z" fill="white"/>
<path fill-rule="evenodd" clip-rule="evenodd" d="M35.203 40.4724L29.3608 25.8682L23.619 33.5238H18.2857V36.5714H25.1429L28.544 32.0335L34.8922 47.9055L40.5608 36.5714H45.7143V33.5238H38.6773L35.203 40.4724ZM64 30.4762V39.619C64 42.9836 61.2724 45.7143 57.9048 45.7143H54.8571C51.4926 45.7143 48.7619 42.9836 48.7619 39.619V33.5238V24.381V22.8571C48.7619 13.6137 41.2434 6.09524 32 6.09524C22.7596 6.09524 15.2381 13.6137 15.2381 22.8571V24.381V33.5238V39.619C15.2381 42.9836 12.5105 45.7143 9.14286 45.7143H6.09524C2.73067 45.7143 0 42.9836 0 39.619V30.4762C0 27.1086 2.73067 24.381 6.09524 24.381H9.14286V22.8571C9.14286 10.2522 19.395 0 32 0C44.605 0 54.8571 10.2522 54.8571 22.8571V24.381H57.9048C61.2724 24.381 64 27.1086 64 30.4762V30.4762Z" fill="white"/>
</g>
<defs>
<clipPath id="clip0_0_583">
<rect width="214" height="50" fill="white"/>
</clipPath>
</defs>
</svg>
